# xmcd CD database file
# Copyright (C) 1993-1998 Ti Kan
#
# Track frame offsets:
#  183
#  12798
#  27283
#  40128
#  53870
#  66710
#  79280
#  91913
#  104023
#  119130
#  131993
#  145950
#  159883
#  173968
#  188238
#  201728
#  214330
#  227145
#  239705
#  252560
#
# Disc length: 3547 seconds
#
# Revision: 2
# Processed by: cddbd v1.4PL0 Copyright (c) Steve Scherf et al.
# Submitted via: Gronk 1.4
#
DISCID=3e0dd914
DTITLE=Tommy McClennan - Travelin' Highway Man
DYEAR=1900
DGENRE=blues
TTITLE0=You Can Mistreat Me Here
TTITLE1=New Shake 'Em On Down
TTITLE2=Bottle It Up And Go
TTITLE3=Whiskey Head Woman
TTITLE4=Cotton Patch Blues
TTITLE5=Baby Please Don't Tell On Me
TTITLE6=My Baby's Gone
TTITLE7=It's Hard To Be Lonesome
TTITLE8=Des'e My Blues
TTITLE9=Classy Mae Blues
TTITLE10=Travelin' Highway Man
TTITLE11=Blues Trip Me This Morning
TTITLE12=Roll Me Baby
TTITLE13=I Love My Baby
TTITLE14=Shake It Up And Go
TTITLE15=Blue As I Can Be
TTITLE16=New Highway No. 51
TTITLE17=Mr. So And So Blues
TTITLE18=Whiskey Head Man
TTITLE19=Boogie Woogie Woman
EXTD=Submitted 1/20/98\nJmccoy@efn.org
EXTT0=
EXTT1=
EXTT2=
EXTT3=
EXTT4=
EXTT5=
EXTT6=
EXTT7=
EXTT8=
EXTT9=
EXTT10=
EXTT11=
EXTT12=
EXTT13=
EXTT14=
EXTT15=
EXTT16=
EXTT17=
EXTT18=
EXTT19=
PLAYORDER=
